# xmcd CD database file
#
# Track frame offsets:
#	150
#	29447
#	45360
#	73192
#	84735
#	97070
#	143232
#	169425
#	181960
#	193645
#	212692
#	251357
#	265997
#	278545
#	290475
#	311207
#
# Disc length: 4482 seconds
#
# Revision: 3
# Processed by: cddbd v1.4PL0 Copyright (c) Steve Scherf et al.
# Submitted via: jetAudio 5
#
DISCID=f4118010
DTITLE=B.B. King - King Of The Blues [CD 2]
DYEAR=2001
DGENRE=Rock
TTITLE0=Goin' Down Slow(Live)
TTITLE1=Tired of Your Jive(Live)
TTITLE2=Sweet Sixteen(Live)
TTITLE3=Paying The Cost To Be The Boss
TTITLE4=I'm Gonna Do What They Do To Me
TTITLE5=Lucille
TTITLE6=Watch Yourself
TTITLE7=You Put It On Me
TTITLE8=Get Myself Somebody
TTITLE9=I Want You So Bad
TTITLE10=Why I Sing The Blues
TTITLE11=Get Off My Back Woman
TTITLE12=Please Accept My Love(Live)
TTITLE13=Fools Get Wise
TTITLE14=No Good
TTITLE15=So Excited
EXTD=YEAR: 2001 ID3G: 17
EXTT0=
EXTT1=
EXTT2=
EXTT3=
EXTT4=
EXTT5=
EXTT6=
EXTT7=
EXTT8=
EXTT9=
EXTT10=
EXTT11=
EXTT12=
EXTT13=
EXTT14=
EXTT15=
PLAYORDER=
